<?xml version="1.0" encoding="UTF-8" standalone="no"?>
<!-- Created with Inkscape (http://www.inkscape.org/) -->

<svg
   width="874.64984mm"
   height="134.0743mm"
   viewBox="0 0 874.64984 134.0743"
   version="1.1"
   id="svg5"
   xml:space="preserve"
   xmlns="http://www.w3.org/2000/svg"
   xmlns:svg="http://www.w3.org/2000/svg"><defs
     id="defs2" /><g
     id="layer1"
     transform="translate(-15.84,-70.148571)"><g
       aria-label="GRAYCROWN"
       id="text975"
       style="font-size:103.479px;font-family:'TF2 Build';-inkscape-font-specification:'TF2 Build';fill:#ffffff;stroke-width:4.07397"><path
         d="m 279.62016,125.71495 q -1.97054,0 -4.59794,0.5558 -2.6274,0.50527 -5.40637,1.66738 -2.72845,1.11159 -5.30532,2.93056 -2.52635,1.81897 -4.39584,4.44636 -1.81897,2.57687 -2.67792,6.0127 -0.80843,3.43583 -0.0505,7.78114 0.7579,3.99162 3.13266,6.92217 2.42529,2.88004 5.76007,4.699 3.3853,1.76844 7.37692,2.52634 4.04215,0.70738 8.03377,0.35369 v -8.69062 h -8.69062 v -11.72223 h 23.39393 v 17.4823 14.60226 3.94109 h -13.69278 -6.82112 q -4.85058,0 -9.65063,-1.11159 -4.74953,-1.11159 -9.09483,-3.13267 -4.29479,-2.0716 -7.98325,-5.00215 -3.68846,-2.93056 -6.41691,-6.61902 -2.67792,-3.68846 -4.24425,-8.03377 -1.51581,-4.34531 -1.51581,-9.19589 -0.25263,-5.35585 0.80843,-10.358 1.06106,-5.00216 3.33477,-9.44853 2.27371,-4.44636 5.70954,-8.13482 3.48635,-3.68846 8.08429,-6.31586 4.64847,-2.67792 10.35801,-4.1432 5.76006,-1.46528 12.58119,-1.46528 4.39583,0 8.2864,0.65685 3.89057,0.60633 6.87165,1.46528 2.98109,0.80843 4.85058,1.61686 1.92002,0.7579 2.32423,1.11159 v 18.4423 q -1.06106,-0.70737 -3.18319,-1.5158 -2.0716,-0.80843 -4.80005,-1.41475 -2.72845,-0.65685 -5.96217,-0.96001 -3.18319,-0.30317 -6.41691,0.0505 z"
         id="path1753" /><path
         d="m 356.82519,142.89408 q -1.61685,1.66739 -3.73898,2.93056 -2.0716,1.21264 -4.34531,2.12213 -2.27371,0.85895 -4.64847,1.41475 -2.32424,0.50527 -4.44637,0.7579 l 19.14968,19.35179 -9.85273,8.8422 -23.19183,-26.32449 0.5558,26.32449 -18.74547,1.01053 -1.97054,-71.89971 19.756,-1.06106 q 3.63793,0 8.79167,0.25263 5.20426,0.25264 11.92434,1.71791 2.98108,0.65685 5.76006,2.42529 2.77897,1.76844 4.95163,4.29479 2.22318,2.47581 3.63793,5.60848 1.41475,3.08214 1.66739,6.41691 0.15158,2.22318 0.0505,4.19373 -0.0505,1.97054 -0.60632,3.89056 -0.50527,1.92002 -1.61686,3.84004 -1.11159,1.8695 -3.08214,3.89057 z m -11.82328,-10.96432 q -0.35369,-2.93056 -1.81897,-4.80006 -1.41475,-1.92002 -3.94109,-2.93055 -2.47582,-1.06107 -5.96217,-1.26317 -3.48635,-0.25264 -7.93271,0.10105 v 18.84652 q 0.70737,0 2.52634,0.15158 1.81896,0.15158 4.09267,0.15158 2.27371,-0.0505 4.699,-0.45475 2.42529,-0.40421 4.34531,-1.5158 1.97055,-1.11159 3.08214,-3.08214 1.16212,-1.97055 0.90948,-5.20426 z"
         id="path1755" /><path
         d="m 414.72897,158.70899 h -22.48445 l -6.92218,20.61495 -17.58334,-4.85057 26.47607,-67.60493 14.60226,0.96001 27.43608,65.58385 -13.69278,5.00216 z m -3.94109,-8.79167 -8.79167,-20.56443 -6.82113,20.56443 z"
         id="path1757" /><path
         d="m 488.29606,143.95515 1.97055,34.96458 -18.03809,1.01054 -2.0716,-34.0551 -28.95189,-28.95189 13.03593,-11.06538 25.9708,28.0424 21.01917,-27.03186 11.06539,8.08429 z"
         id="path1759" /><path
         d="m 577.37492,174.97863 q -1.81897,1.46528 -4.29479,2.42529 -2.42528,0.96001 -5.15373,1.51581 -2.72846,0.50527 -5.55796,0.70738 -2.77898,0.2021 -5.30532,0.2021 -4.85058,0 -9.65063,-1.16212 -4.74952,-1.16211 -9.09483,-3.33477 -4.29478,-2.17265 -7.98324,-5.20426 -3.68846,-3.08214 -6.41691,-6.82113 -2.67793,-3.78951 -4.24426,-8.18535 -1.51581,-4.39584 -1.51581,-9.24641 -0.25263,-5.35585 0.80843,-10.35801 1.06107,-5.05268 3.33478,-9.44852 2.2737,-4.44636 5.70953,-8.0843 3.48635,-3.68846 8.0843,-6.31585 4.64847,-2.67793 10.358,-4.1432 5.70954,-1.46528 12.48014,-1.46528 4.39583,0 8.2864,0.65685 3.94109,0.60632 6.92218,1.46527 3.03161,0.80843 4.9011,1.61686 1.8695,0.75791 2.22318,1.11159 v 18.44231 q -1.06106,-0.70738 -3.18319,-1.51581 -2.0716,-0.85896 -4.80005,-1.46528 -2.72845,-0.65685 -5.96217,-0.90948 -3.18319,-0.30316 -6.41691,0.0505 -1.97054,0 -4.59794,0.50527 -2.57687,0.50527 -5.30532,1.66739 -2.72845,1.11159 -5.30532,2.93056 -2.52634,1.76844 -4.39584,4.39583 -1.81896,2.57687 -2.62739,6.0127 -0.80843,3.43583 -0.10106,7.78113 0.70738,3.63794 3.13267,6.41691 2.42529,2.72845 5.81059,4.59795 3.43582,1.86949 7.5285,2.8295 4.09267,0.90949 8.13482,1.01054 4.09268,0.0505 7.78114,-0.7579 3.73898,-0.80843 6.41691,-2.52635 z"
         id="path1761" /><path
         d="m 636.9966,142.89408 q -1.61685,1.66739 -3.73898,2.93056 -2.0716,1.21264 -4.34531,2.12213 -2.27371,0.85895 -4.64847,1.41475 -2.32424,0.50527 -4.44637,0.7579 l 19.14968,19.35179 -9.85273,8.8422 -23.19183,-26.32449 0.55579,26.32449 -18.74546,1.01053 -1.97055,-71.89971 19.756,-1.06106 q 3.63794,0 8.79168,0.25263 5.20426,0.25264 11.92433,1.71791 2.98109,0.65685 5.76007,2.42529 2.77897,1.76844 4.95163,4.29479 2.22318,2.47581 3.63793,5.60848 1.41475,3.08214 1.66739,6.41691 0.15158,2.22318 0.0505,4.19373 -0.0505,1.97054 -0.60632,3.89056 -0.50527,1.92002 -1.61686,3.84004 -1.11159,1.8695 -3.08214,3.89057 z m -11.82328,-10.96432 q -0.35369,-2.93056 -1.81897,-4.80006 -1.41475,-1.92002 -3.94109,-2.93055 -2.47582,-1.06107 -5.96217,-1.26317 -3.48635,-0.25264 -7.93272,0.10105 v 18.84652 q 0.70738,0 2.52635,0.15158 1.81896,0.15158 4.09267,0.15158 2.27371,-0.0505 4.699,-0.45475 2.42529,-0.40421 4.34531,-1.5158 1.97055,-1.11159 3.08214,-3.08214 1.16211,-1.97055 0.90948,-5.20426 z"
         id="path1763" /><path
         d="m 685.45184,105.55474 q 5.50742,0 10.50958,1.36422 5.00216,1.3137 9.24642,3.73899 4.29478,2.42529 7.78113,5.86112 3.48636,3.43582 5.91164,7.57902 2.47582,4.14321 3.78952,8.94326 1.36422,4.80005 1.36422,9.95379 0,5.10321 -1.36422,9.85273 -1.3137,4.699 -3.78952,8.79168 -2.42528,4.09267 -5.91164,7.47797 -3.48635,3.33477 -7.78113,5.70953 -4.24426,2.37477 -9.24642,3.68846 -5.00216,1.3137 -10.50958,1.3137 -5.20427,0 -10.05485,-1.3137 -4.80005,-1.31369 -8.99378,-3.68846 -4.1432,-2.37476 -7.57902,-5.70953 -3.3853,-3.3853 -5.81059,-7.47797 -2.42529,-4.09268 -3.78952,-8.79168 -1.31369,-4.69899 -1.31369,-9.85273 0,-5.15374 1.31369,-9.95379 1.36423,-4.80005 3.78952,-8.94326 2.42529,-4.1432 5.81059,-7.57902 3.43582,-3.43583 7.57902,-5.86112 4.19373,-2.42529 8.99378,-3.73899 4.85058,-1.36422 10.05485,-1.36422 z m 0,59.82379 q 4.69899,0 8.69062,-1.66738 3.99162,-1.66739 6.87165,-4.44637 2.93056,-2.8295 4.54742,-6.46743 1.66738,-3.68846 1.66738,-7.73061 0,-4.44637 -1.66738,-8.13483 -1.61686,-3.73898 -4.54742,-6.36638 -2.88003,-2.67792 -6.87165,-4.1432 -3.99163,-1.51581 -8.69062,-1.51581 -4.29479,0 -8.0843,1.51581 -3.73899,1.46528 -6.56849,4.1432 -2.77898,2.6274 -4.39584,6.36638 -1.61686,3.68846 -1.61686,8.13483 0,4.04215 1.61686,7.73061 1.61686,3.63793 4.39584,6.46743 2.8295,2.77898 6.56849,4.44637 3.78951,1.66738 8.0843,1.66738 z"
         id="path1765" /><path
         d="m 794.38774,155.02053 11.97487,-47.5963 17.07808,3.08214 -18.29073,68.1102 -16.06754,-1.76844 -10.56011,-40.2699 -15.10753,42.84677 h -17.78545 l -17.07808,-70.28286 20.05917,-2.37476 9.75168,43.60468 13.44014,-43.60468 10.66117,0.85896 z"
         id="path1767" /><path
         d="m 846.32937,135.46664 1.01054,43.8573 h -19.45284 v -72.4555 h 14.70331 l 32.28666,46.08049 -2.17265,-45.32259 16.67386,-0.65685 1.11159,70.38391 -13.64225,1.06106 z"
         id="path1769" /></g><path
       style="fill:#ffffff;stroke:none;stroke-width:2"
       d="M 45.822856,70.148571 123.89143,117.66857 162.92571,84.291428 199.13143,125.02285 175.93714,199.69714 42.994286,204.22286 15.84,117.66857 Z"
       id="path365" /></g></svg>
